<svg width="100%" height="100%" viewBox="0 0 3247 1234" version="1.1" xmlns="http://www.w3.org/2000/svg" xmlns:xlink="http://www.w3.org/1999/xlink" xml:space="preserve" xmlns:serif="http://www.serif.com/" style="fill-rule:evenodd;clip-rule:evenodd;stroke-linejoin:round;stroke-miterlimit:1.5;">
  <g transform="matrix(1,0,0,1,-149.406,-1192.33)">
    <g transform="matrix(1,0,0,1,0,-0.0649902)">
      <g transform="matrix(1,0,0,1,-190.112,0.0649902)">
        <g transform="matrix(1549.76,0,0,1549.76,285.034,2355.46)">
          <path d="M0.386,-0L0.526,-0L0.526,-0.129L0.619,-0.129L0.619,-0.247L0.526,-0.247L0.526,-0.705L0.318,-0.705L0.035,-0.252L0.035,-0.129L0.386,-0.129L0.386,-0ZM0.164,-0.243L0.164,-0.247L0.385,-0.598L0.389,-0.598L0.389,-0.243L0.164,-0.243Z" style="fill-rule:nonzero;" />
        </g>
      </g>
    </g>
    <g transform="matrix(1,0,0,1,0,-0.0649902)">
      <g transform="matrix(1,0,0,1,2151.95,0.0649902)">
        <g transform="matrix(1549.76,0,0,1549.76,285.034,2355.46)">
          <path d="M0.386,-0L0.526,-0L0.526,-0.129L0.619,-0.129L0.619,-0.247L0.526,-0.247L0.526,-0.705L0.318,-0.705L0.035,-0.252L0.035,-0.129L0.386,-0.129L0.386,-0ZM0.164,-0.243L0.164,-0.247L0.385,-0.598L0.389,-0.598L0.389,-0.243L0.164,-0.243Z" style="fill-rule:nonzero;" />
        </g>
      </g>
    </g>
    <g transform="matrix(1,0,0,1,0,-0.0649902)">






      <g transform="matrix(-3.26901,0.875928,-0.875928,-3.26901,-420.338,6137.6)">
        <path d="M-788.0,1110.18C-811.119,1200.8 -887.255,1241.76 -956.882,1241.76C-1048.32,1241.76 -1123.39,1171.12 -1130.46,1081.49" style="fill:none;stroke:currentcolor;stroke-width:16.01px;" />
      </g>
      <g transform="matrix(-3.26901,0.875928,-0.875928,-3.26901,-420.338,6137.6)">
        <path d="M-1130.45,1081.5C-1140.36,961.34 -1046.48,893.522 -956.882,893.522C-860.784,893.522 -782.765,971.541 -782.765,1067.64C-782.765,1082.32 -784.586,1096.58 -788.016,1110.21" style="fill:none;stroke:currentcolor;stroke-width:16.01px;" />
      </g>
    </g>
  </g>
</svg>
