<svg width="512" height="514" viewBox="0 0 512 514" xmlns="http://www.w3.org/2000/svg">
  <path d="M503.16,323.56C514.55,281.47 515.32,235.91 503.2,190.76C466.57,54.23 326.04,-26.8 189.33,9.78C83.81,38.02 11.39,128.07 0.69,230.47L43.99,230.47C54.29,147.33 113.74,74.73 199.75,51.71C306.05,23.26 409.925,88.999 453.17,181.38C471.104,219.692 467.35,281.16 460.55,308.07L503.16,323.56Z" fill="var(--color-brand)"/>
  <path d="M321.99,504.22C185.27,540.8 44.75,459.77 8.11,323.24C3.84,307.31 1.17,291.33 0,275.46L43.27,275.46C43.775,280.98 51.592,357.435 101.652,402.09C159.595,453.778 263.595,473.473 309.61,461.16C371.35,444.64 419.4,402.56 445.42,349.38L488.06,364.88C457.17,431.16 398.22,483.82 321.99,504.22Z" fill="var(--color-brand)"/>
</svg>
